<?xml version="1.0" encoding="utf-8"?>
<!-- Generator: Adobe Illustrator 22.0.1, SVG Export Plug-In . SVG Version: 6.00 Build 0)  -->
<svg version="1.1" id="Слой_1" xmlns="http://www.w3.org/2000/svg" xmlns:xlink="http://www.w3.org/1999/xlink" x="0px" y="0px"
	 viewBox="0 0 64 64" style="enable-background:new 0 0 64 64;" xml:space="preserve">
<style type="text/css">
	.st0{fill:#1D1D1B;}
</style>
<g>
	<g>
		<g>
			<path class="st0" d="M29.5,40.8C29,40.9,28.6,41,28.2,41l-5.5,6.9l-6.7-8.5c-0.4-0.6-1.3-0.7-1.8-0.2c-0.6,0.5-0.6,1.3-0.2,1.8
				l7.5,9.4c0.2,0.4,0.6,0.6,1.1,0.6c0.1,0,0.1,0,0.2,0c0,0,0.1,0,0.1,0c0.4,0,0.8-0.2,1.1-0.5l7.5-9.5c0,0,0,0,0,0
				C30.7,41.1,30,41,29.5,40.8z"/>
			<path class="st0" d="M42.4,40.9c-0.4,0-0.8,0-1.1-0.1v16.9c0,0.7-0.6,1.3-1.3,1.3H9.4c-0.7,0-1.3-0.6-1.3-1.3V26.8
				c0-0.7,0.6-1.3,1.3-1.3h13.3c0-0.2-0.1-0.4-0.1-0.6c0-0.6,0.1-1.3,0.4-2H9.4c-2.1,0-3.9,1.8-3.9,3.9v30.8c0,2.2,1.7,3.9,3.9,3.9
				h30.5c2.1,0,3.9-1.8,3.9-3.9v-17C43.4,40.8,42.9,40.9,42.4,40.9z"/>
		</g>
		<path class="st0" d="M61,1.9c-0.6-0.5-1.4-0.4-1.8,0.2L38.6,27.9l-6.7-8.5c-0.4-0.6-1.3-0.7-1.8-0.2c-0.6,0.5-0.6,1.3-0.2,1.8
			l7.5,9.4c0.2,0.4,0.6,0.6,1.1,0.6c0.1,0,0.1,0,0.2,0c0,0,0.1,0,0.1,0c0.4,0,0.8-0.2,1.1-0.5L61.2,3.7C61.7,3.1,61.6,2.3,61,1.9z"
			/>
		<path class="st0" d="M58.5,14.8c-0.7,0-1.3,0.6-1.3,1.3v21.5c0,0.7-0.6,1.3-1.3,1.3H25.4c-0.7,0-1.3-0.6-1.3-1.3V6.8
			c0-0.7,0.6-1.3,1.3-1.3h21.1c0.7,0,1.3-0.6,1.3-1.3c0-0.7-0.6-1.3-1.3-1.3H25.4c-2.1,0-3.9,1.8-3.9,3.9v30.8
			c0,2.2,1.7,3.9,3.9,3.9h30.5c2.1,0,3.9-1.8,3.9-3.9V16.1C59.8,15.4,59.2,14.8,58.5,14.8z"/>
	</g>
</g>
</svg>
