<?xml version="1.0" encoding="utf-8"?>
<!-- Generator: Adobe Illustrator 19.2.1, SVG Export Plug-In . SVG Version: 6.00 Build 0)  -->
<svg version="1.1" xmlns="http://www.w3.org/2000/svg" xmlns:xlink="http://www.w3.org/1999/xlink" x="0px" y="0px"
	 viewBox="0 0 50 50" style="enable-background:new 0 0 50 50;" xml:space="preserve">
<style type="text/css">
	.st0{fill:#E2E2E2;}
	.st1{filter:url(#Adobe_OpacityMaskFilter);}
	.st2{fill:url(#SVGID_2_);}
	.st3{mask:url(#SVGID_1_);}
	.st4{fill:#FFFFFF;}
	.st5{opacity:0.5;fill:#7893AE;}
	.st6{filter:url(#Adobe_OpacityMaskFilter_1_);}
	.st7{mask:url(#SVGID_3_);fill:#FFFFFF;}
	.st8{filter:url(#Adobe_OpacityMaskFilter_2_);}
	.st9{opacity:0.8;mask:url(#SVGID_4_);fill:#FFFFFF;}
	.st10{opacity:0.7;fill:#7893AE;}
	.st11{filter:url(#Adobe_OpacityMaskFilter_3_);}
	.st12{fill:url(#SVGID_6_);}
	.st13{opacity:0.5;mask:url(#SVGID_5_);fill:#7893AE;}
	.st14{filter:url(#Adobe_OpacityMaskFilter_4_);}
	.st15{fill:url(#SVGID_8_);}
	.st16{opacity:0.5;mask:url(#SVGID_7_);fill:#F3F8FC;}
	.st17{filter:url(#Adobe_OpacityMaskFilter_5_);}
	.st18{fill:url(#SVGID_10_);}
	.st19{opacity:0.5;mask:url(#SVGID_9_);fill:#F3F8FC;}
	.st20{filter:url(#Adobe_OpacityMaskFilter_6_);}
	.st21{fill:url(#SVGID_12_);}
	.st22{mask:url(#SVGID_11_);fill:#FFFFFF;}
	.st23{filter:url(#Adobe_OpacityMaskFilter_7_);}
	.st24{fill:url(#SVGID_14_);}
	.st25{mask:url(#SVGID_13_);fill:#FFFFFF;}
	.st26{filter:url(#Adobe_OpacityMaskFilter_8_);}
	.st27{fill:url(#SVGID_16_);}
	.st28{mask:url(#SVGID_15_);fill:#FFFFFF;}
	.st29{filter:url(#Adobe_OpacityMaskFilter_9_);}
	.st30{fill:url(#SVGID_18_);}
	.st31{mask:url(#SVGID_17_);fill:#FFFFFF;}
	.st32{filter:url(#Adobe_OpacityMaskFilter_10_);}
	.st33{fill:url(#SVGID_20_);}
	.st34{mask:url(#SVGID_19_);fill:#FFFFFF;}
	.st35{filter:url(#Adobe_OpacityMaskFilter_11_);}
	.st36{fill:url(#SVGID_22_);}
	.st37{mask:url(#SVGID_21_);fill:#FFFFFF;}
	.st38{filter:url(#Adobe_OpacityMaskFilter_12_);}
	.st39{fill:url(#SVGID_24_);}
	.st40{mask:url(#SVGID_23_);fill:#FFFFFF;}
	.st41{filter:url(#Adobe_OpacityMaskFilter_13_);}
	.st42{fill:url(#SVGID_26_);}
	.st43{mask:url(#SVGID_25_);fill:#FFFFFF;}
	.st44{filter:url(#Adobe_OpacityMaskFilter_14_);}
	.st45{fill:url(#SVGID_28_);}
	.st46{mask:url(#SVGID_27_);fill:#FFFFFF;}
	.st47{filter:url(#Adobe_OpacityMaskFilter_15_);}
	.st48{fill:url(#SVGID_30_);}
	.st49{mask:url(#SVGID_29_);fill:#FFFFFF;}
	.st50{filter:url(#Adobe_OpacityMaskFilter_16_);}
	.st51{fill:url(#SVGID_32_);}
	.st52{mask:url(#SVGID_31_);fill:#FFFFFF;}
	.st53{filter:url(#Adobe_OpacityMaskFilter_17_);}
	.st54{fill:url(#SVGID_34_);}
	.st55{mask:url(#SVGID_33_);fill:#FFFFFF;}
	.st56{clip-path:url(#SVGID_36_);}
	.st57{filter:url(#Adobe_OpacityMaskFilter_18_);}
	.st58{fill:url(#SVGID_38_);}
	.st59{mask:url(#SVGID_37_);}
</style>
<g id="Слой_2">
	<rect class="st0" width="50" height="50"/>
</g>
<g id="Слой_1">
	<g>
		<image style="overflow:visible;" width="7" height="7" xlink:href="63143F84.png"  transform="matrix(1 0 0 1 37 37)">
		</image>
		<image style="overflow:visible;" width="10" height="7" xlink:href="63143F85.png"  transform="matrix(1 0 0 1 36 36)">
		</image>
		<image style="overflow:visible;" width="7" height="8" xlink:href="63143F83.png"  transform="matrix(1 0 0 1 38 35)">
		</image>
		<g>
			<image style="overflow:visible;" width="33" height="24" xlink:href="63143F8C.png"  transform="matrix(1 0 0 1 0 16)">
			</image>
			<image style="overflow:visible;" width="18" height="4" xlink:href="63143F8F.png"  transform="matrix(1 0 0 1 9 16)">
			</image>
			<g>
				<defs>
					<filter id="Adobe_OpacityMaskFilter" filterUnits="userSpaceOnUse" x="0.6" y="5.9" width="16.4" height="16.7">
						<feColorMatrix  type="matrix" values="1 0 0 0 0  0 1 0 0 0  0 0 1 0 0  0 0 0 1 0"/>
					</filter>
				</defs>
				<mask maskUnits="userSpaceOnUse" x="0.6" y="5.9" width="16.4" height="16.7" id="SVGID_1_">
					<g class="st1">
						
							<radialGradient id="SVGID_2_" cx="-6.7799" cy="-3030.8359" r="9.5271" gradientTransform="matrix(0.7071 0.7071 -1.1303 1.1303 -3412.5254 3444.7615)" gradientUnits="userSpaceOnUse">
							<stop  offset="0" style="stop-color:#FFFFFF"/>
							<stop  offset="1" style="stop-color:#D5D5D5"/>
						</radialGradient>
						<path class="st2" d="M13.6,15.6C13.6,15.6,13.6,15.6,13.6,15.6c0,0-0.1,0-0.1,0.1l0,0c-0.1,0-0.3,0.1-0.4-0.1
							c-0.2-0.3,0.6-0.5,1.5-2.5c0.9-1.9-0.7-4.3-2.2-4.7C10.8,8,8.5,8.7,6.9,10.9c-1.6,2.3-1.3,4.7-0.8,5.7c0.5,0.9,1,1,1.1,1
							c-0.3,0.1-0.6,0.3-0.8,0.5c-0.9,0.7-3.8,2.8-4.8,4.5l0,0c-1.3,0-1-4.3-0.8-5.7C1.1,15.6,2,12,5.7,8.4c3.7-3.7,7.7-2.6,9.4-0.9
							c1.7,1.7,1.7,3.7,1.8,4.1c0.1,0.3,0.2,0.9,0.2,1c-0.4,0.5-0.8,1.1-2,2.2C14.6,15.1,14.1,15.4,13.6,15.6z"/>
					</g>
				</mask>
				<g class="st3">
					<path class="st4" d="M13.6,15.6C13.6,15.6,13.6,15.6,13.6,15.6c0,0-0.1,0-0.1,0.1l0,0c-0.1,0-0.3,0.1-0.4-0.1
						c-0.2-0.3,0.6-0.5,1.5-2.5c0.9-1.9-0.7-4.3-2.2-4.7C10.8,8,8.5,8.7,6.9,10.9c-1.6,2.3-1.3,4.7-0.8,5.7c0.5,0.9,1,1,1.1,1
						c-0.3,0.1-0.6,0.3-0.8,0.5c-0.9,0.7-3.8,2.8-4.8,4.5l0,0c-1.3,0-1-4.3-0.8-5.7C1.1,15.6,2,12,5.7,8.4c3.7-3.7,7.7-2.6,9.4-0.9
						c1.7,1.7,1.7,3.7,1.8,4.1c0.1,0.3,0.2,0.9,0.2,1c-0.4,0.5-0.8,1.1-2,2.2C14.6,15.1,14.1,15.4,13.6,15.6z"/>
				</g>
				<path class="st5" d="M1.6,14.4c0.7-1.7,1.9-3.8,4.1-6c0.3-0.3,0.6-0.5,0.8-0.7c0,0,0,0,0,0s-2.1,2.1-3.2,3.9
					C2.2,13.2,2,13.6,1.6,14.4z"/>
				<defs>
					<filter id="Adobe_OpacityMaskFilter_1_" filterUnits="userSpaceOnUse" x="0.5" y="9.4" width="31.6" height="30.8">
						
							<feColorMatrix  type="matrix" values="-1 0 0 0 1  0 -1 0 0 1  0 0 -1 0 1  0 0 0 1 0" color-interpolation-filters="sRGB" result="source"/>
					</filter>
				</defs>
				<mask maskUnits="userSpaceOnUse" x="0.5" y="9.4" width="31.6" height="30.8" id="SVGID_3_">
					<g class="st6">
						
							<image style="overflow:visible;" width="31.6" height="30.8" xlink:href="78B93CD2.png"  transform="matrix(1 0 0 1 0.5318 9.4143)"/>
					</g>
				</mask>
				<path class="st7" d="M23.6,30.3c1.2-3.3,3-6.1,6.4-7.4c0.7,0.2,1,0.5,1.3,0.7c0.3,0.2,0.5,0.1,0.7-0.1c0.1-0.2,0.2-0.8,0.2-1.4
					c0-0.2,0-0.4-0.1-0.7c-0.1-0.7-0.4-1.6-1-2.5c-0.8-1.2-2.4-3.1-4.9-5.3c-0.4-0.4-0.9-0.7-1.3-1.1c-1.9-1.5-3.4-2.4-4-2.8
					c-0.7-0.3-1.4-0.4-1.7-0.1l0,0l0,0c0,0-0.1,0.1-0.1,0.1c-0.1,0-0.2,0.2-0.3,0.4c-0.2,0.3-0.7,1.5-1.3,2.1
					c-0.1,0.1-0.2,0.3-0.3,0.4c-0.4,0.5-0.8,1.1-2,2.2c-0.4,0.4-0.9,0.6-1.4,0.9c0,0,0,0,0,0c0,0-0.1,0-0.1,0.1l0,0
					c-1.3,0.6-2.7,1-3.8,1.2c-1.1,0.3-1.8,0.4-2.5,0.6c0,0,0,0,0,0c-0.3,0.1-0.6,0.3-0.8,0.5c-0.9,0.7-3.8,2.8-4.8,4.5
					c-0.1,0.1-0.1,0.2-0.2,0.3c-0.5,1-0.9,2.2-0.9,3.4c0,1.4,0.3,2.8,0.7,4.1c0.8,2.6,2.5,4.8,4.6,6.6c2,1.7,4.3,3,6.9,3.2
					c2.6,0.2,5.3-0.7,7.2-2.5C21.8,35.6,22.6,32.9,23.6,30.3z"/>
				<defs>
					<filter id="Adobe_OpacityMaskFilter_2_" filterUnits="userSpaceOnUse" x="0.5" y="9.6" width="31.5" height="30.6">
						
							<feColorMatrix  type="matrix" values="-1 0 0 0 1  0 -1 0 0 1  0 0 -1 0 1  0 0 0 1 0" color-interpolation-filters="sRGB" result="source"/>
					</filter>
				</defs>
				<mask maskUnits="userSpaceOnUse" x="0.5" y="9.6" width="31.5" height="30.6" id="SVGID_4_">
					<g class="st8">
						
							<image style="overflow:visible;" width="31.5" height="30.6" xlink:href="78B93CD6.png"  transform="matrix(1 0 0 1 0.5317 9.6022)"/>
					</g>
				</mask>
				<path class="st9" d="M32,22.4c0.1,0.2-0.1,0.6-0.2,0.8c-0.1,0.2-0.3,0.2-0.8-0.1c-0.5-0.3-1-0.3-1-0.3c-3.4,1.2-5.2,4.1-6.4,7.4
					c-1,2.6-1.8,5.4-3.7,7.3c-1.8,1.9-4.6,2.7-7.2,2.5c-2.6-0.2-5-1.5-6.9-3.2c-2.1-1.8-3.7-4-4.6-6.6c-0.4-1.3-0.6-2.7-0.7-4.1
					c0-1.1,0.4-2.4,0.9-3.4c0-0.1,0.1-0.2,0.2-0.3c1-1.7,3.9-3.9,4.8-4.5c0.3-0.2,0.6-0.4,0.8-0.5c0,0,0,0,0,0
					c0.7-0.3,1.4-0.4,2.5-0.6c1.1-0.3,2.5-0.6,3.8-1.2l0,0c0,0,0.1,0,0.1-0.1c0,0,0,0,0,0c0.5-0.2,1-0.5,1.4-0.9
					c1.3-1,1.7-1.6,2-2.2c0.1-0.1,0.2-0.3,0.3-0.4c0.5-0.7,1.1-1.8,1.3-2.1c0.2-0.2,0.3-0.3,0.3-0.4c0,0,0.1-0.1,0.1-0.1l0,0L19,9.7
					c0,0,0,0.1-0.1,0.1c-0.2,0.4,0,1,0.4,1.7c0,0-0.3-0.2-0.4,0c-0.8,1-1.5,2.1-2.4,3.1c-1.2,1.4-2.9,2.3-4.6,3
					c-1.9,0.8-4,1.5-5.7,2.6c-2.7,1.8-4.7,4.9-4.5,8.2c0.2,2.4,1.6,4.6,3.2,6.4c1.6,1.8,3.6,3.4,5.9,4.2c2.3,0.8,5,0.8,7.1-0.5
					c1.8-1.1,3.1-3,3.9-4.9c0.9-2,1.4-4,2.2-6c1-2.4,3-6.3,6.2-5.4c1.4,0.4,0.9,0.7,0.9,0.7s0.3,0.2,0.4,0.1
					c0.2-0.2,0.4-0.5,0.3-0.8l0,0C32,22.2,32,22.3,32,22.4z"/>
				<path class="st4" d="M32,23.5c0.1-0.2,0.2-0.8,0.2-1.4c0-0.2,0-0.4-0.1-0.7c-0.1-0.7-0.4-1.6-1-2.5c-0.8-1.2-2.4-3.1-4.9-5.3
					c-0.4-0.4-0.9-0.7-1.3-1.1c-1.9-1.5-3.4-2.4-4-2.8c-0.7-0.4-1.5-0.4-1.8,0c0,0,0,0.1-0.1,0.1c-0.2,0.4,0,1,0.4,1.7
					c0.7,1.2,2.1,2.7,3,3.7c1.4,1.5,2.6,2.5,4.2,3.6c1.6,1.1,2.3,1.4,3.1,1.9c0.7,0.4,1.3,0.4,1.7,0.8c0.3,0.3,0.4,0.4,0.5,0.6
					c0,0,0,0.1,0,0.1c0,0.1,0,0.2,0.1,0.3c0.1,0.2-0.1,0.6-0.2,0.8c-0.1,0.2-0.3,0.2-0.8-0.1c-0.5-0.3-1-0.3-1-0.3
					c0.7,0.2,1,0.5,1.3,0.7C31.7,23.8,31.9,23.7,32,23.5z M32,22.1c0-0.1-0.1-0.5-0.6-1c-0.7-0.6-1.8-0.8-3.2-1.8
					c-1.4-1-2.2-1.3-4.3-3.4c-2.1-2.1-3.7-4.1-4.1-5c-0.4-1,0.2-1.2,0.7-1.1c0.5,0.1,2.5,1.3,4.3,2.8c0.1,0.1,0.2,0.2,0.4,0.3
					c1.9,1.6,4,3.9,4.7,4.7c0.7,0.8,1.6,2.2,2,3.4c0.1,0.2,0.1,0.3,0.1,0.4C32.1,21.8,32,22.1,32,22.1C32,22.1,32,22.1,32,22.1z"/>
				<path class="st10" d="M32,23.5c0.1-0.2,0.2-0.8,0.2-1.4c0-0.2,0-0.4-0.1-0.7c-0.1-0.7-0.4-1.6-1-2.5c-0.8-1.2-2.4-3.1-4.9-5.3
					c-0.4-0.4-0.9-0.7-1.3-1.1c-1.9-1.5-3.4-2.4-4-2.8c-0.7-0.4-1.5-0.4-1.8,0c0,0,0,0,0,0c0,0.3,0.1,0.5,0.3,0.7
					c0.2,0.3,0.4,0.6,0.7,0.8c-0.1-0.1-0.2-0.3-0.2-0.4c-0.4-1,0.2-1.2,0.7-1.1c0.5,0.1,2.5,1.3,4.3,2.8c0.1,0.1,0.2,0.2,0.4,0.3
					c1.9,1.6,4,3.9,4.7,4.7c0.7,0.8,1.6,2.2,2,3.4c0.1,0.2,0.1,0.3,0.1,0.4c0.1,0.4,0.1,0.7,0.1,0.7c0,0,0,0,0,0
					c0-0.1-0.1-0.5-0.6-1c-0.4-0.3-0.9-0.5-1.5-0.8c-0.9-0.2-1.7-0.7-2.4-1.3c-0.2-0.1-0.3-0.3-0.5-0.2c-0.1,0-0.1,0.1-0.1,0.1
					c1.5,1,2.1,1.3,2.8,1.7c0.7,0.4,1.3,0.4,1.7,0.8c0.3,0.3,0.4,0.4,0.5,0.6c0,0,0,0.1,0,0.1c0,0.1,0,0.2,0.1,0.3
					c0.1,0.2-0.1,0.6-0.2,0.8c-0.1,0.2-0.3,0.2-0.8-0.1c-0.2-0.1-0.4-0.2-0.6-0.2c-0.3-0.1-0.4-0.1-0.4-0.1c0,0,0,0,0,0
					c0.7,0.2,0.9,0.5,1.3,0.7C31.7,23.8,31.9,23.7,32,23.5z"/>
				<path class="st5" d="M14.8,12c0-1.6-1.2-3.2-2.5-3.6c-0.6-0.2-1.3-0.2-2.1,0c0.2-0.1,0.4-0.2,0.6-0.3c0.5-0.2,1-0.3,1.5-0.3
					c1,0.1,1.9,0.6,2.4,1.4c0.3,0.5,0.4,1,0.4,1.5C15.1,11.2,15,11.7,14.8,12z"/>
				<path class="st5" d="M14.3,15.2c-0.2,0.1-0.5,0.3-0.7,0.4c0,0,0,0,0,0c0,0-0.1,0-0.1,0.1l0,0c-0.1,0-0.3,0.1-0.4-0.1
					c-0.2-0.3,0.6-0.5,1.4-2.4c0,0.2,0,0.4,0,0.6c0,0.3-0.2,0.7-0.5,0.9c-0.1,0.1-0.2,0.2-0.2,0.3C13.9,15.1,14.1,15.1,14.3,15.2
					C14.3,15.2,14.3,15.2,14.3,15.2z"/>
				<path class="st5" d="M5.8,15.7c-0.2-0.5-0.3-1-0.3-1.5c0-0.5,0-1,0.2-1.6c0.3-0.9,0.7-1.9,1.4-2.6c0.6-0.6,1.5-1,2-1.1
					c-0.8,0.4-1.5,1.1-2.1,2C5.7,12.7,5.6,14.5,5.8,15.7z"/>
				<path class="st5" d="M1.5,17.3c0,0,0.3,0.9,0.1,1.8c-0.1,0.8-0.4,1-0.4,1s0.2-0.7,0.2-1.4C1.4,17.9,1.5,17.3,1.5,17.3z"/>
				<path class="st5" d="M1.5,22.4c-0.1,0-0.1,0.1-0.2,0.1c-0.6-0.3-0.7-1.6-0.7-2.9c0.1,0.2,0.2,0.5,0.3,0.7
					c0.1,0.2,0.2,0.3,0.3,0.4c0.1,0.1,0.3,0.2,0.5,0.1c-0.1,0.2-0.1,0.4,0.1,0.6c0.2,0.1,0.5,0.2,0.6,0c0,0,0,0.1-0.1,0.1
					c-0.1,0.1-0.2,0.2-0.3,0.3C1.9,22,1.7,22.2,1.5,22.4z"/>
				<path class="st5" d="M23.6,30.3c1.2-3.3,3-6.1,6.4-7.4c0,0,0,0,0,0c0.2,0,0.4,0.1,0.4,0.1c0,0-0.2-0.1-0.3-0.1c0,0-0.1,0-0.2,0
					c-1.5,0.1-2.9,1.4-4,2.5c-1,1.1-1.9,2.6-2.5,4c-0.6,1.4-0.8,3.1-1.4,4.5c-0.3,0.7-0.5,1.4-1,2c-0.3,0.5-0.8,0.9-1.4,1.2
					c-0.2,0.1-0.4,0.2-0.6,0.3c-0.2,0.1-0.5,0.2-0.4,0.5c0,0.1,0.1,0.1,0.1,0.1c0,0,0,0,0,0c0.1,0.1,0.3,0.1,0.4,0.2
					c0.2-0.2,0.4-0.3,0.5-0.5C21.8,35.6,22.6,32.9,23.6,30.3z"/>
				<path class="st10" d="M2.1,21.8c-0.2,0.2-0.4,0.4-0.6,0.6c-0.1,0-0.1,0.1-0.2,0.1c0.1,0,0.2,0.1,0.2,0.1l0,0
					C1.7,22.3,1.9,22.1,2.1,21.8z"/>
				<path class="st5" d="M18.3,11.8c-0.1,0.1-0.2,0.2-0.3,0.3c0.1,0.1,0.2,0,0.3,0c0.1-0.1,0.2-0.2,0.2-0.3c0.1-0.1,0.1-0.2,0.1-0.3
					c0,0,0,0,0,0C18.5,11.6,18.4,11.7,18.3,11.8z"/>
				<path class="st5" d="M18.7,11.4C18.7,11.4,18.7,11.4,18.7,11.4c-0.1,0.1-0.1,0.1-0.1,0.1c0,0-0.1,0-0.1,0c0-0.2,0.1-0.4,0.3-0.5
					c0,0.1,0.1,0.1,0.1,0.2C18.8,11.2,18.7,11.3,18.7,11.4z"/>
				<path class="st5" d="M19,11.2c0,0-0.1-0.1-0.1-0.1c0-0.1,0-0.1,0-0.2c0.1-0.1,0.1,0,0.2,0C19,11,19,11.1,19,11.2z"/>
				<path class="st5" d="M19.1,11.5c-0.1-0.1-0.1-0.1-0.1-0.2c0-0.1,0.1-0.2,0.1-0.2c0,0.1,0.1,0.1,0.1,0.2
					C19.2,11.3,19.2,11.4,19.1,11.5z"/>
				<path class="st5" d="M19.2,11.4c0.1,0.1,0.1,0.2,0.2,0.3c0-0.1,0-0.2,0-0.2C19.3,11.4,19.3,11.4,19.2,11.4z"/>
				<path class="st5" d="M18.7,11C18.7,11,18.7,11,18.7,11c-0.2-0.2-0.3-0.4-0.3-0.6c0.1-0.2,0.2-0.3,0.2-0.4c0,0,0.1-0.1,0.1-0.1
					C18.6,10.3,18.6,10.7,18.7,11z"/>
				<path class="st5" d="M17.2,13.4c0.3-0.2,0.5-0.4,0.6-0.7c-0.2,0.3-0.6,0.6-0.9,0.7c0,0,0,0.1-0.1,0.1c0,0.1,0.1,0.1,0.2,0.1
					C17.1,13.5,17.2,13.5,17.2,13.4z"/>
				<path class="st5" d="M17.3,13.7C17.3,13.7,17.3,13.7,17.3,13.7c-0.2,0.2-0.4,0.3-0.7,0.3c0-0.1,0.1-0.3,0.1-0.4
					c0.2,0,0.3,0,0.5-0.1c0.2-0.1,0.4-0.3,0.5-0.4C17.6,13.2,17.5,13.4,17.3,13.7z"/>
				<path class="st5" d="M16.5,13.3c0.1-0.1,0.1-0.3,0.1-0.4c0,0,0.1,0.1,0.1,0.1c0,0,0.1,0,0.1-0.1C16.6,13,16.6,13.1,16.5,13.3z"
					/>
				<path class="st5" d="M17,12.4C16.9,12.4,16.9,12.4,17,12.4c-0.1,0-0.1,0.1-0.1,0.1c0-0.1,0-0.2,0.1-0.2c0,0,0.1-0.1,0.1,0
					c0,0,0,0,0,0C17,12.3,17,12.4,17,12.4C17,12.4,17,12.4,17,12.4z"/>
				<path class="st5" d="M16.7,13.3c0,0.1-0.2,0.1-0.3,0.1c0,0.1,0,0.2,0,0.2C16.5,13.5,16.6,13.4,16.7,13.3z"/>
				<path class="st5" d="M16.4,14c0,0,0,0.1,0,0.1c0.1-0.1,0.1-0.2,0.2-0.3C16.5,13.9,16.5,13.9,16.4,14z"/>
				<path class="st5" d="M15,14.8c-0.1,0.1-0.2,0.2-0.3,0.2c0,0,0.1-0.1,0.1-0.1c0.3-0.4,1.1-1,1.3-1.1C15.9,14,15.5,14.4,15,14.8z"
					/>
				<path class="st10" d="M1.1,18.9c-0.3-0.8-0.2-1.8,0-2.6c0-0.1,0.1-0.3,0.1-0.4c0.2,0.8,0.1,1.6,0,2.4
					C1.1,18.4,1.1,18.7,1.1,18.9z"/>
				<path class="st5" d="M0.8,19.5c-0.1,0-0.1-0.1-0.1-0.1c0,0,0,0,0,0c0-1,0.1-1.9,0.2-2.5c0.1-0.3,0.1-0.7,0.3-1.3
					c0,0.1,0,0.1,0,0.2C1.1,16,1.1,16.1,1,16.3c-0.2,0.9-0.3,1.8,0,2.6C1,19,1,19.1,1,19.3c0,0.1,0,0.1-0.1,0.2
					C0.9,19.5,0.8,19.6,0.8,19.5z"/>
				<path class="st4" d="M1.2,15.8C1.2,15.8,1.2,15.9,1.2,15.8C1.2,15.9,1.2,15.8,1.2,15.8L1.2,15.8z"/>
				<defs>
					<filter id="Adobe_OpacityMaskFilter_3_" filterUnits="userSpaceOnUse" x="0.9" y="29" width="10" height="10.9">
						
							<feColorMatrix  type="matrix" values="-1 0 0 0 1  0 -1 0 0 1  0 0 -1 0 1  0 0 0 1 0" color-interpolation-filters="sRGB" result="source"/>
					</filter>
				</defs>
				<mask maskUnits="userSpaceOnUse" x="0.9" y="29" width="10" height="10.9" id="SVGID_5_">
					<g class="st11">
						
							<radialGradient id="SVGID_6_" cx="5.7376" cy="11818.0986" r="11.0458" gradientTransform="matrix(0.7071 0.7071 -0.291 0.291 3441.2908 -3409.0547)" gradientUnits="userSpaceOnUse">
							<stop  offset="0.1358" style="stop-color:#FFFFFF"/>
							<stop  offset="1" style="stop-color:#080809"/>
						</radialGradient>
						<path class="st12" d="M10.9,39.8c-1.9-0.5-3.6-1.6-5.1-2.9c-2.1-1.8-3.7-4-4.6-6.6C1.1,29.9,1,29.4,0.9,29
							c1.6,3,3.8,5.6,6.3,7.9C8.3,38,9.6,39,10.9,39.8z"/>
					</g>
				</mask>
				<path class="st13" d="M10.9,39.8c-1.9-0.5-3.6-1.6-5.1-2.9c-2.1-1.8-3.7-4-4.6-6.6C1.1,29.9,1,29.4,0.9,29
					c1.6,3,3.8,5.6,6.3,7.9C8.3,38,9.6,39,10.9,39.8z"/>
				<defs>
					<filter id="Adobe_OpacityMaskFilter_4_" filterUnits="userSpaceOnUse" x="11.7" y="18.5" width="20.3" height="18.9">
						<feColorMatrix  type="matrix" values="1 0 0 0 0  0 1 0 0 0  0 0 1 0 0  0 0 0 1 0"/>
					</filter>
				</defs>
				<mask maskUnits="userSpaceOnUse" x="11.7" y="18.5" width="20.3" height="18.9" id="SVGID_7_">
					<g class="st14">
						
							<linearGradient id="SVGID_8_" gradientUnits="userSpaceOnUse" x1="7.8021" y1="42.7728" x2="17.805" y2="42.7728" gradientTransform="matrix(0.7071 0.7071 -0.7071 0.7071 43.3724 -11.1362)">
							<stop  offset="0" style="stop-color:#080809"/>
							<stop  offset="1" style="stop-color:#FFFFFF"/>
						</linearGradient>
						<path class="st15" d="M20.7,36.7c-0.3,0.1-0.6,0.3-0.9,0.4c-1.5,0.5-3.2,0.3-4.7-0.5c-1.4-0.7-2.6-2-3.4-3.3
							c2-1,3.7-2.4,5.1-4.1c1.1-1.4,1.9-3,2.8-4.5c0.9-1.5,1.9-3,3.1-4.3c1-0.9,2.2-1.7,3.5-2c0.1,0.1,0.2,0.2,0.4,0.2
							c1.6,1.1,2.3,1.4,3.1,1.9c0.7,0.4,1.3,0.4,1.7,0.8c0.3,0.3,0.4,0.4,0.5,0.6c0,0,0,0.1,0,0.1c0,0.1,0,0.2,0.1,0.3
							c0.1,0.2-0.1,0.6-0.2,0.8c-0.1,0.2-0.3,0.2-0.8-0.1c-0.5-0.3-1-0.3-1-0.3c-3.4,1.2-5.2,4.1-6.4,7.4
							C22.8,32.5,22.1,34.9,20.7,36.7z"/>
					</g>
				</mask>
				<path class="st16" d="M20.6,36.7c-0.3,0.1-0.6,0.3-0.9,0.4c-1.5,0.5-3.2,0.3-4.7-0.5c-1.4-0.7-2.6-2-3.4-3.3
					c2-1,3.7-2.4,5.1-4.1c1.1-1.4,1.9-3,2.8-4.5c0.9-1.5,1.9-3,3.1-4.3c1-0.9,2.2-1.7,3.5-2c0.1,0.1,0.2,0.2,0.4,0.2
					c1.6,1.1,2.3,1.4,3.1,1.9c0.7,0.4,1.3,0.4,1.7,0.8c0.3,0.3,0.4,0.4,0.5,0.6c0,0,0,0.1,0,0.1c0,0.1,0,0.2,0.1,0.3
					c0.1,0.2-0.1,0.6-0.2,0.8c-0.1,0.2-0.3,0.2-0.8-0.1c-0.5-0.3-1-0.3-1-0.3c-3.4,1.2-5.2,4.1-6.4,7.4
					C22.8,32.5,22.1,34.8,20.6,36.7z"/>
				<defs>
					<filter id="Adobe_OpacityMaskFilter_5_" filterUnits="userSpaceOnUse" x="0.5" y="21.3" width="17.3" height="18.9">
						<feColorMatrix  type="matrix" values="1 0 0 0 0  0 1 0 0 0  0 0 1 0 0  0 0 0 1 0"/>
					</filter>
				</defs>
				<mask maskUnits="userSpaceOnUse" x="0.5" y="21.3" width="17.3" height="18.9" id="SVGID_9_">
					<g class="st17">
						
							<linearGradient id="SVGID_10_" gradientUnits="userSpaceOnUse" x1="-5.873" y1="56.1777" x2="17.523" y2="56.1777" gradientTransform="matrix(0.7071 0.7071 -0.7071 0.7071 43.3724 -11.1362)">
							<stop  offset="0" style="stop-color:#080809"/>
							<stop  offset="1" style="stop-color:#FFFFFF"/>
						</linearGradient>
						<path class="st18" d="M17.9,39.1c-1.6,0.8-3.4,1.2-5.2,1.1c-2.6-0.2-5-1.5-6.9-3.2c-2.1-1.8-3.7-4-4.6-6.6
							c-0.4-1.3-0.6-2.7-0.7-4.1c0-1.1,0.4-2.4,0.9-3.4c0-0.1,0.1-0.2,0.2-0.3c0.2-0.4,0.6-0.9,1-1.3c-0.5,1.5-0.4,3.1,0.3,4.5
							c1.3,2.5,4.2,3.8,6.2,5.8c1.4,1.4,2.4,3.2,3.8,4.6C14.3,37.6,16.1,38.6,17.9,39.1z"/>
					</g>
				</mask>
				<path class="st19" d="M17.9,39.1c-1.6,0.8-3.4,1.2-5.2,1.1c-2.6-0.2-5-1.5-6.9-3.2c-2.1-1.8-3.7-4-4.6-6.6
					c-0.4-1.3-0.6-2.7-0.7-4.1c0-1.1,0.4-2.4,0.9-3.4c0-0.1,0.1-0.2,0.2-0.3c0.2-0.4,0.6-0.9,1-1.3c-0.5,1.5-0.4,3.1,0.3,4.5
					c1.3,2.5,4.2,3.8,6.2,5.8c1.4,1.4,2.4,3.2,3.8,4.6C14.3,37.6,16,38.6,17.9,39.1z"/>
				<defs>
					<filter id="Adobe_OpacityMaskFilter_6_" filterUnits="userSpaceOnUse" x="18.8" y="11.6" width="7.9" height="7.9">
						<feColorMatrix  type="matrix" values="1 0 0 0 0  0 1 0 0 0  0 0 1 0 0  0 0 0 1 0"/>
					</filter>
				</defs>
				<mask maskUnits="userSpaceOnUse" x="18.8" y="11.6" width="7.9" height="7.9" id="SVGID_11_">
					<g class="st20">
						
							<radialGradient id="SVGID_12_" cx="20.4567" cy="10863.0566" r="3.8373" gradientTransform="matrix(1.0315 1.0315 -7.690000e-002 7.690000e-002 837.0797 -840.9019)" gradientUnits="userSpaceOnUse">
							<stop  offset="0" style="stop-color:#FFFFFF"/>
							<stop  offset="4.854614e-002" style="stop-color:#E3E3E3"/>
							<stop  offset="0.1479" style="stop-color:#B0B0B1"/>
							<stop  offset="0.252" style="stop-color:#838384"/>
							<stop  offset="0.3588" style="stop-color:#5D5D5E"/>
							<stop  offset="0.4691" style="stop-color:#3E3E3F"/>
							<stop  offset="0.5839" style="stop-color:#262627"/>
							<stop  offset="0.7051" style="stop-color:#151516"/>
							<stop  offset="0.8371" style="stop-color:#0B0B0C"/>
							<stop  offset="1" style="stop-color:#080809"/>
						</radialGradient>
						<path class="st21" d="M26.8,19.5c0.2-0.2-1.5-2.1-3.7-4.3c-2.2-2.2-4.1-3.8-4.3-3.7c-0.2,0.2,1.5,2.1,3.7,4.3
							C24.7,18,26.6,19.7,26.8,19.5z"/>
					</g>
				</mask>
				
					<ellipse transform="matrix(0.7071 -0.7071 0.7071 0.7071 -4.327 20.6902)" class="st22" cx="22.8" cy="15.6" rx="0.4" ry="5.6"/>
				<defs>
					<filter id="Adobe_OpacityMaskFilter_7_" filterUnits="userSpaceOnUse" x="24" y="23.9" width="2.3" height="3">
						<feColorMatrix  type="matrix" values="1 0 0 0 0  0 1 0 0 0  0 0 1 0 0  0 0 0 1 0"/>
					</filter>
				</defs>
				<mask maskUnits="userSpaceOnUse" x="24" y="23.9" width="2.3" height="3" id="SVGID_13_">
					<g class="st23">
						
							<radialGradient id="SVGID_14_" cx="306.4423" cy="11577.0586" r="3.8369" gradientTransform="matrix(-0.2806 0.3813 -8.760000e-002 -6.450000e-002 1125.3151 655.2819)" gradientUnits="userSpaceOnUse">
							<stop  offset="0" style="stop-color:#FFFFFF"/>
							<stop  offset="4.854614e-002" style="stop-color:#E3E3E3"/>
							<stop  offset="0.1479" style="stop-color:#B0B0B1"/>
							<stop  offset="0.252" style="stop-color:#838384"/>
							<stop  offset="0.3588" style="stop-color:#5D5D5E"/>
							<stop  offset="0.4691" style="stop-color:#3E3E3F"/>
							<stop  offset="0.5839" style="stop-color:#262627"/>
							<stop  offset="0.7051" style="stop-color:#151516"/>
							<stop  offset="0.8371" style="stop-color:#0B0B0C"/>
							<stop  offset="1" style="stop-color:#080809"/>
						</radialGradient>
						<path class="st24" d="M24.1,26.9c0.2,0.1,0.8-0.4,1.4-1.2c0.6-0.8,0.9-1.6,0.7-1.7c-0.2-0.1-0.8,0.4-1.4,1.2
							S23.9,26.7,24.1,26.9z"/>
					</g>
				</mask>
				
					<ellipse transform="matrix(0.5927 -0.8054 0.8054 0.5927 -10.2097 30.6265)" class="st25" cx="25.2" cy="25.4" rx="1.8" ry="0.4"/>
				<defs>
					<filter id="Adobe_OpacityMaskFilter_8_" filterUnits="userSpaceOnUse" x="9.4" y="5.9" width="4.6" height="1.8">
						<feColorMatrix  type="matrix" values="1 0 0 0 0  0 1 0 0 0  0 0 1 0 0  0 0 0 1 0"/>
					</filter>
				</defs>
				<mask maskUnits="userSpaceOnUse" x="9.4" y="5.9" width="4.6" height="1.8" id="SVGID_15_">
					<g class="st26">
						
							<radialGradient id="SVGID_16_" cx="-796.046" cy="8375.2383" r="7.623" gradientTransform="matrix(-0.2984 -4.100000e-002 1.480000e-002 -0.1077 -349.8594 876.1896)" gradientUnits="userSpaceOnUse">
							<stop  offset="0" style="stop-color:#FFFFFF"/>
							<stop  offset="4.854614e-002" style="stop-color:#E3E3E3"/>
							<stop  offset="0.1479" style="stop-color:#B0B0B1"/>
							<stop  offset="0.252" style="stop-color:#838384"/>
							<stop  offset="0.3588" style="stop-color:#5D5D5E"/>
							<stop  offset="0.4691" style="stop-color:#3E3E3F"/>
							<stop  offset="0.5839" style="stop-color:#262627"/>
							<stop  offset="0.7051" style="stop-color:#151516"/>
							<stop  offset="0.8371" style="stop-color:#0B0B0C"/>
							<stop  offset="1" style="stop-color:#080809"/>
						</radialGradient>
						<path class="st27" d="M9.4,6.5c-0.1,0.5,0.9,1,2.2,1.1c1.3,0.2,2.3-0.1,2.4-0.5C14,6.7,13,6.2,11.7,6C10.5,5.8,9.4,6,9.4,6.5z
							"/>
					</g>
				</mask>
				<ellipse transform="matrix(0.1362 -0.9907 0.9907 0.1362 3.2988 17.4122)" class="st28" cx="11.6" cy="6.8" rx="0.8" ry="2.3"/>
				<defs>
					<filter id="Adobe_OpacityMaskFilter_9_" filterUnits="userSpaceOnUse" x="1.5" y="18" width="6.6" height="6.9">
						<feColorMatrix  type="matrix" values="1 0 0 0 0  0 1 0 0 0  0 0 1 0 0  0 0 0 1 0"/>
					</filter>
				</defs>
				<mask maskUnits="userSpaceOnUse" x="1.5" y="18" width="6.6" height="6.9" id="SVGID_17_">
					<g class="st29">
						
							<radialGradient id="SVGID_18_" cx="-637.5265" cy="7105.312" r="14.8285" gradientTransform="matrix(-0.207 0.2187 -7.900000e-002 -7.470000e-002 434.1403 691.6481)" gradientUnits="userSpaceOnUse">
							<stop  offset="0" style="stop-color:#FFFFFF"/>
							<stop  offset="4.854614e-002" style="stop-color:#E3E3E3"/>
							<stop  offset="0.1479" style="stop-color:#B0B0B1"/>
							<stop  offset="0.252" style="stop-color:#838384"/>
							<stop  offset="0.3588" style="stop-color:#5D5D5E"/>
							<stop  offset="0.4691" style="stop-color:#3E3E3F"/>
							<stop  offset="0.5839" style="stop-color:#262627"/>
							<stop  offset="0.7051" style="stop-color:#151516"/>
							<stop  offset="0.8371" style="stop-color:#0B0B0C"/>
							<stop  offset="1" style="stop-color:#080809"/>
						</radialGradient>
						<path class="st30" d="M1.7,24.7c0.6,0.6,2.5-0.3,4.2-2.1c1.7-1.8,2.5-3.7,1.9-4.4c-0.6-0.6-2.5,0.3-4.2,2.1
							C1.9,22.1,1.1,24.1,1.7,24.7z"/>
					</g>
				</mask>
				
					<ellipse transform="matrix(0.6873 -0.7263 0.7263 0.6873 -14.0857 10.186)" class="st31" cx="4.8" cy="21.5" rx="4.5" ry="1.6"/>
				<defs>
					<filter id="Adobe_OpacityMaskFilter_10_" filterUnits="userSpaceOnUse" x="15.6" y="32.8" width="6.6" height="6.9">
						<feColorMatrix  type="matrix" values="1 0 0 0 0  0 1 0 0 0  0 0 1 0 0  0 0 0 1 0"/>
					</filter>
				</defs>
				<mask maskUnits="userSpaceOnUse" x="15.6" y="32.8" width="6.6" height="6.9" id="SVGID_19_">
					<g class="st32">
						
							<radialGradient id="SVGID_20_" cx="-634.166" cy="6917.9082" r="14.8285" gradientTransform="matrix(-0.207 0.2187 -7.900000e-002 -7.470000e-002 434.1403 691.6481)" gradientUnits="userSpaceOnUse">
							<stop  offset="0" style="stop-color:#FFFFFF"/>
							<stop  offset="4.854614e-002" style="stop-color:#E3E3E3"/>
							<stop  offset="0.1479" style="stop-color:#B0B0B1"/>
							<stop  offset="0.252" style="stop-color:#838384"/>
							<stop  offset="0.3588" style="stop-color:#5D5D5E"/>
							<stop  offset="0.4691" style="stop-color:#3E3E3F"/>
							<stop  offset="0.5839" style="stop-color:#262627"/>
							<stop  offset="0.7051" style="stop-color:#151516"/>
							<stop  offset="0.8371" style="stop-color:#0B0B0C"/>
							<stop  offset="1" style="stop-color:#080809"/>
						</radialGradient>
						<path class="st33" d="M15.8,39.4c0.6,0.6,2.5-0.3,4.2-2.1c1.7-1.8,2.5-3.7,1.9-4.4c-0.6-0.6-2.5,0.3-4.2,2.1
							C16,36.9,15.2,38.8,15.8,39.4z"/>
					</g>
				</mask>
				
					<ellipse transform="matrix(0.6873 -0.7263 0.7263 0.6873 -20.3762 25.0408)" class="st34" cx="18.9" cy="36.2" rx="4.5" ry="1.6"/>
				<defs>
					<filter id="Adobe_OpacityMaskFilter_11_" filterUnits="userSpaceOnUse" x="26.2" y="13.7" width="3.2" height="3.2">
						<feColorMatrix  type="matrix" values="1 0 0 0 0  0 1 0 0 0  0 0 1 0 0  0 0 0 1 0"/>
					</filter>
				</defs>
				<mask maskUnits="userSpaceOnUse" x="26.2" y="13.7" width="3.2" height="3.2" id="SVGID_21_">
					<g class="st35">
						
							<radialGradient id="SVGID_22_" cx="-60.9362" cy="18939.7773" r="3.8374" gradientTransform="matrix(0.4127 0.4127 -1.820000e-002 1.820000e-002 397.5939 -304.2878)" gradientUnits="userSpaceOnUse">
							<stop  offset="0" style="stop-color:#FFFFFF"/>
							<stop  offset="4.854614e-002" style="stop-color:#E3E3E3"/>
							<stop  offset="0.1479" style="stop-color:#B0B0B1"/>
							<stop  offset="0.252" style="stop-color:#838384"/>
							<stop  offset="0.3588" style="stop-color:#5D5D5E"/>
							<stop  offset="0.4691" style="stop-color:#3E3E3F"/>
							<stop  offset="0.5839" style="stop-color:#262627"/>
							<stop  offset="0.7051" style="stop-color:#151516"/>
							<stop  offset="0.8371" style="stop-color:#0B0B0C"/>
							<stop  offset="1" style="stop-color:#080809"/>
						</radialGradient>
						<path class="st36" d="M29.3,16.9c0,0-0.6-0.8-1.5-1.7c-0.9-0.9-1.6-1.6-1.7-1.5c0,0,0.6,0.8,1.5,1.7
							C28.5,16.2,29.3,16.9,29.3,16.9z"/>
					</g>
				</mask>
				
					<ellipse transform="matrix(0.7071 -0.7071 0.7071 0.7071 -2.6707 24.088)" class="st37" cx="27.7" cy="15.3" rx="0.1" ry="2.2"/>
				<defs>
					<filter id="Adobe_OpacityMaskFilter_12_" filterUnits="userSpaceOnUse" x="30.8" y="18.7" width="1.1" height="2">
						<feColorMatrix  type="matrix" values="1 0 0 0 0  0 1 0 0 0  0 0 1 0 0  0 0 0 1 0"/>
					</filter>
				</defs>
				<mask maskUnits="userSpaceOnUse" x="30.8" y="18.7" width="1.1" height="2" id="SVGID_23_">
					<g class="st38">
						
							<radialGradient id="SVGID_24_" cx="-124.8878" cy="20690.6387" r="3.835" gradientTransform="matrix(0.1409 0.2573 -2.260000e-002 1.240000e-002 516.5153 -204.7003)" gradientUnits="userSpaceOnUse">
							<stop  offset="0" style="stop-color:#FFFFFF"/>
							<stop  offset="4.854614e-002" style="stop-color:#E3E3E3"/>
							<stop  offset="0.1479" style="stop-color:#B0B0B1"/>
							<stop  offset="0.252" style="stop-color:#838384"/>
							<stop  offset="0.3588" style="stop-color:#5D5D5E"/>
							<stop  offset="0.4691" style="stop-color:#3E3E3F"/>
							<stop  offset="0.5839" style="stop-color:#262627"/>
							<stop  offset="0.7051" style="stop-color:#151516"/>
							<stop  offset="0.8371" style="stop-color:#0B0B0C"/>
							<stop  offset="1" style="stop-color:#080809"/>
						</radialGradient>
						<path class="st39" d="M31.9,20.7c0,0-0.2-0.5-0.5-1c-0.3-0.5-0.6-1-0.6-0.9c0,0,0.2,0.5,0.5,1C31.5,20.3,31.8,20.7,31.9,20.7z
							"/>
					</g>
				</mask>
				
					<ellipse transform="matrix(0.8771 -0.4803 0.4803 0.8771 -5.6283 17.4617)" class="st40" cx="31.3" cy="19.7" rx="0.1" ry="1.1"/>
				<defs>
					<filter id="Adobe_OpacityMaskFilter_13_" filterUnits="userSpaceOnUse" x="27.3" y="18.9" width="1.9" height="1.2">
						<feColorMatrix  type="matrix" values="1 0 0 0 0  0 1 0 0 0  0 0 1 0 0  0 0 0 1 0"/>
					</filter>
				</defs>
				<mask maskUnits="userSpaceOnUse" x="27.3" y="18.9" width="1.9" height="1.2" id="SVGID_25_">
					<g class="st41">
						
							<radialGradient id="SVGID_26_" cx="-561.4958" cy="16982.1094" r="3.8349" gradientTransform="matrix(0.247 0.1584 -1.390000e-002 2.170000e-002 402.9472 -260.0902)" gradientUnits="userSpaceOnUse">
							<stop  offset="0" style="stop-color:#FFFFFF"/>
							<stop  offset="4.854614e-002" style="stop-color:#E3E3E3"/>
							<stop  offset="0.1479" style="stop-color:#B0B0B1"/>
							<stop  offset="0.252" style="stop-color:#838384"/>
							<stop  offset="0.3588" style="stop-color:#5D5D5E"/>
							<stop  offset="0.4691" style="stop-color:#3E3E3F"/>
							<stop  offset="0.5839" style="stop-color:#262627"/>
							<stop  offset="0.7051" style="stop-color:#151516"/>
							<stop  offset="0.8371" style="stop-color:#0B0B0C"/>
							<stop  offset="1" style="stop-color:#080809"/>
						</radialGradient>
						<path class="st42" d="M29.2,20.1c0,0-0.4-0.4-0.9-0.7c-0.5-0.3-1-0.6-1-0.5c0,0,0.4,0.4,0.9,0.7
							C28.7,19.9,29.1,20.1,29.2,20.1z"/>
					</g>
				</mask>
				
					<ellipse transform="matrix(0.5399 -0.8417 0.8417 0.5399 -3.4203 32.7035)" class="st43" cx="28.2" cy="19.5" rx="0.1" ry="1.1"/>
				<defs>
					<filter id="Adobe_OpacityMaskFilter_14_" filterUnits="userSpaceOnUse" x="18.8" y="9.8" width="0.2" height="0.9">
						<feColorMatrix  type="matrix" values="1 0 0 0 0  0 1 0 0 0  0 0 1 0 0  0 0 0 1 0"/>
					</filter>
				</defs>
				<mask maskUnits="userSpaceOnUse" x="18.8" y="9.8" width="0.2" height="0.9" id="SVGID_27_">
					<g class="st44">
						
							<radialGradient id="SVGID_28_" cx="953.7344" cy="13314.6797" r="3.8395" gradientTransform="matrix(1.550000e-002 0.1223 -2.550000e-002 3.200000e-003 343.6409 -148.9632)" gradientUnits="userSpaceOnUse">
							<stop  offset="0" style="stop-color:#FFFFFF"/>
							<stop  offset="4.854614e-002" style="stop-color:#E3E3E3"/>
							<stop  offset="0.1479" style="stop-color:#B0B0B1"/>
							<stop  offset="0.252" style="stop-color:#838384"/>
							<stop  offset="0.3588" style="stop-color:#5D5D5E"/>
							<stop  offset="0.4691" style="stop-color:#3E3E3F"/>
							<stop  offset="0.5839" style="stop-color:#262627"/>
							<stop  offset="0.7051" style="stop-color:#151516"/>
							<stop  offset="0.8371" style="stop-color:#0B0B0C"/>
							<stop  offset="1" style="stop-color:#080809"/>
						</radialGradient>
						<path class="st45" d="M19,10.8c0.1,0,0.1-0.2,0-0.5c0-0.3-0.1-0.5-0.2-0.5c-0.1,0-0.1,0.2,0,0.5C18.8,10.6,18.9,10.8,19,10.8z
							"/>
					</g>
				</mask>
				
					<ellipse transform="matrix(0.9921 -0.1258 0.1258 0.9921 -1.1438 2.4594)" class="st46" cx="18.9" cy="10.3" rx="0.1" ry="0.5"/>
				<defs>
					<filter id="Adobe_OpacityMaskFilter_15_" filterUnits="userSpaceOnUse" x="30.1" y="22.7" width="1.5" height="0.7">
						<feColorMatrix  type="matrix" values="1 0 0 0 0  0 1 0 0 0  0 0 1 0 0  0 0 0 1 0"/>
					</filter>
				</defs>
				<mask maskUnits="userSpaceOnUse" x="30.1" y="22.7" width="1.5" height="0.7" id="SVGID_29_">
					<g class="st47">
						
							<radialGradient id="SVGID_30_" cx="-596.16" cy="14486.332" r="2.8349" gradientTransform="matrix(0.2645 0.1271 -1.110000e-002 2.320000e-002 349.356 -237.2083)" gradientUnits="userSpaceOnUse">
							<stop  offset="0" style="stop-color:#FFFFFF"/>
							<stop  offset="4.854614e-002" style="stop-color:#E3E3E3"/>
							<stop  offset="0.1479" style="stop-color:#B0B0B1"/>
							<stop  offset="0.252" style="stop-color:#838384"/>
							<stop  offset="0.3588" style="stop-color:#5D5D5E"/>
							<stop  offset="0.4691" style="stop-color:#3E3E3F"/>
							<stop  offset="0.5839" style="stop-color:#262627"/>
							<stop  offset="0.7051" style="stop-color:#151516"/>
							<stop  offset="0.8371" style="stop-color:#0B0B0C"/>
							<stop  offset="1" style="stop-color:#080809"/>
						</radialGradient>
						<path class="st48" d="M31.6,23.5c0,0-0.3-0.2-0.7-0.4c-0.4-0.2-0.8-0.3-0.8-0.3c0,0,0.3,0.2,0.7,0.4
							C31.3,23.4,31.6,23.5,31.6,23.5z"/>
					</g>
				</mask>
				
					<ellipse transform="matrix(0.4331 -0.9014 0.9014 0.4331 -3.3208 40.9254)" class="st49" cx="30.9" cy="23.1" rx="0.1" ry="0.8"/>
				<defs>
					<filter id="Adobe_OpacityMaskFilter_16_" filterUnits="userSpaceOnUse" x="28.4" y="20" width="3.3" height="1.5">
						<feColorMatrix  type="matrix" values="1 0 0 0 0  0 1 0 0 0  0 0 1 0 0  0 0 0 1 0"/>
					</filter>
				</defs>
				<mask maskUnits="userSpaceOnUse" x="28.4" y="20" width="3.3" height="1.5" id="SVGID_31_">
					<g class="st50">
						
							<radialGradient id="SVGID_32_" cx="-666.4398" cy="14936.3691" r="6.0902" gradientTransform="matrix(0.2682 0.119 -1.040000e-002 2.350000e-002 364.1096 -250.9568)" gradientUnits="userSpaceOnUse">
							<stop  offset="0" style="stop-color:#FFFFFF"/>
							<stop  offset="4.854614e-002" style="stop-color:#E3E3E3"/>
							<stop  offset="0.1479" style="stop-color:#B0B0B1"/>
							<stop  offset="0.252" style="stop-color:#838384"/>
							<stop  offset="0.3588" style="stop-color:#5D5D5E"/>
							<stop  offset="0.4691" style="stop-color:#3E3E3F"/>
							<stop  offset="0.5839" style="stop-color:#262627"/>
							<stop  offset="0.7051" style="stop-color:#151516"/>
							<stop  offset="0.8371" style="stop-color:#0B0B0C"/>
							<stop  offset="1" style="stop-color:#080809"/>
						</radialGradient>
						<path class="st51" d="M31.7,21.5c0-0.1-0.7-0.5-1.6-0.9c-0.9-0.4-1.7-0.7-1.7-0.6c0,0.1,0.7,0.5,1.6,0.9
							C30.9,21.3,31.6,21.5,31.7,21.5z"/>
					</g>
				</mask>
				<ellipse transform="matrix(0.4056 -0.9141 0.9141 0.4056 -1.1075 39.7799)" class="st52" cx="30" cy="20.7" rx="0.2" ry="1.8"/>
				<defs>
					<filter id="Adobe_OpacityMaskFilter_17_" filterUnits="userSpaceOnUse" x="21.4" y="10.1" width="2.6" height="1.7">
						<feColorMatrix  type="matrix" values="1 0 0 0 0  0 1 0 0 0  0 0 1 0 0  0 0 0 1 0"/>
					</filter>
				</defs>
				<mask maskUnits="userSpaceOnUse" x="21.4" y="10.1" width="2.6" height="1.7" id="SVGID_33_">
					<g class="st53">
						
							<radialGradient id="SVGID_34_" cx="-202.2957" cy="18828.2578" r="3.8416" gradientTransform="matrix(0.3336 0.2215 -1.420000e-002 2.140000e-002 357.4865 -347.1487)" gradientUnits="userSpaceOnUse">
							<stop  offset="0" style="stop-color:#FFFFFF"/>
							<stop  offset="4.854614e-002" style="stop-color:#E3E3E3"/>
							<stop  offset="0.1479" style="stop-color:#B0B0B1"/>
							<stop  offset="0.252" style="stop-color:#838384"/>
							<stop  offset="0.3588" style="stop-color:#5D5D5E"/>
							<stop  offset="0.4691" style="stop-color:#3E3E3F"/>
							<stop  offset="0.5839" style="stop-color:#262627"/>
							<stop  offset="0.7051" style="stop-color:#151516"/>
							<stop  offset="0.8371" style="stop-color:#0B0B0C"/>
							<stop  offset="1" style="stop-color:#080809"/>
						</radialGradient>
						<path class="st54" d="M23.9,11.8c0,0-0.5-0.5-1.2-0.9c-0.7-0.5-1.3-0.8-1.3-0.8c0,0,0.5,0.5,1.2,0.9
							C23.3,11.5,23.9,11.9,23.9,11.8z"/>
					</g>
				</mask>
				<ellipse transform="matrix(0.5531 -0.8331 0.8331 0.5531 0.9802 23.7623)" class="st55" cx="22.6" cy="11" rx="0.1" ry="1.5"/>
			</g>
			<g>
				<defs>
					<path id="SVGID_35_" d="M42.6,35.3c0,0.7-0.1,1.4-0.1,2.1c-0.1,0.9-0.2,1.8-0.4,2.8c-0.1,0.7-0.2,1-0.2,1.1l0,0l-0.1,0
						c-0.1,0-0.2-0.1-0.2-0.1c-0.3-0.1-0.6-0.2-0.8-0.2c-0.1,0-0.1,0-0.2,0c-0.2,0-0.4,0-0.6-0.1c0,0-0.1,0-0.1,0c0,0,0-0.1,0-0.1
						c0-0.3-0.1-1.1-0.1-1.2c-0.2-1.4-0.4-2.6-0.7-3.9l0,0c-0.1-0.4-0.2-0.7-0.3-1.1l0,0c-0.1-0.5-0.3-1.1-0.4-1.7
						c-0.1-0.5-0.3-0.9-0.4-1.4c-0.5-1.5-1.1-2.9-1.9-4.4l0-0.1c-0.2-0.4-0.4-0.8-0.6-1.2c-0.5-0.8-1.1-1.6-1.8-2.4
						c-0.4-0.4-0.8-0.8-1.3-1.2c-0.1-0.1-0.2-0.1-0.3-0.2c0,0,0,0,0,0c0,0,0,0,0,0c0-0.1-0.1-0.5-0.6-1c-0.7-0.6-1.8-0.8-3.2-1.8
						c-1.2-0.9-2-1.2-3.5-2.6c0.3,0,0.5,0,0.8,0c0.5,0,1,0.1,1.4,0.1c0.1,0,0.2,0,0.3,0l0,0c0.6,0.1,1.2,0.2,1.8,0.4
						c0.2,0,0.4,0.1,0.7,0.1c0.2,0,0.4,0.1,0.6,0.1c0.3,0.1,0.5,0.1,0.8,0.2c0.7,0.2,1.4,0.4,2,0.7c0.1,0.1,0.2,0.1,0.3,0.2
						c0.9,0.4,2,1,3,1.7c0,0,0,0,0.1,0.1c0.9,0.7,1.7,1.4,2.6,2.6l0,0c0.3,0.3,0.5,0.7,0.7,1.1c0.1,0.1,0.1,0.2,0.2,0.3
						c0.2,0.4,0.5,0.8,0.7,1.2c0.6,1.1,0.9,2.3,1.2,3.7l0,0.2c0,0.1,0,0.1,0,0.1c0.1,0.4,0.2,0.9,0.3,1.6c0.1,0.6,0.2,1.3,0.2,2
						c0,0.3,0,0.5,0,0.8C42.6,34.3,42.6,34.8,42.6,35.3z"/>
				</defs>
				<clipPath id="SVGID_36_">
					<use xlink:href="#SVGID_35_"  style="overflow:visible;"/>
				</clipPath>
				<g class="st56">
					<defs>
						<filter id="Adobe_OpacityMaskFilter_18_" filterUnits="userSpaceOnUse" x="13" y="16" width="30" height="26">
							
								<feColorMatrix  type="matrix" values="-1 0 0 0 1  0 -1 0 0 1  0 0 -1 0 1  0 0 0 1 0" color-interpolation-filters="sRGB" result="source"/>
						</filter>
					</defs>
					<mask maskUnits="userSpaceOnUse" x="13" y="16" width="30" height="26" id="SVGID_37_">
						<g class="st57">
							<linearGradient id="SVGID_38_" gradientUnits="userSpaceOnUse" x1="18.4985" y1="31.4052" x2="31.9919" y2="28.9231">
								<stop  offset="0" style="stop-color:#FFFFFF"/>
								<stop  offset="0.1647" style="stop-color:#000000"/>
							</linearGradient>
							<path class="st58" d="M41.8,41.3c-0.1,0-0.2-0.1-0.2-0.1c-0.3-0.1-0.6-0.2-0.8-0.2c-0.1,0-0.1,0-0.2,0c-0.2,0-0.4,0-0.6-0.1
								c0,0-0.1,0-0.1,0c0,0,0-0.1,0-0.1c0-0.3-0.1-1.1-0.1-1.2c-0.2-1.3-0.3-2.7-0.7-3.9c-0.2-0.9-0.5-1.9-0.7-2.8
								c-0.1-0.5-0.3-0.9-0.4-1.4c-0.5-1.5-1.2-2.9-1.9-4.4c-0.2-0.5-0.4-0.8-0.7-1.3c-0.5-0.8-1.1-1.6-1.7-2.4c0,0,0,0,0,0
								c-0.4-0.4-0.7-0.7-1.1-1c-0.1-0.1-0.1-0.1-0.2-0.2c-0.3-0.2-0.5-0.4-0.7-0.5c-0.2-0.2-0.5-0.3-0.7-0.4
								c-1-0.6-2.1-1.1-3.1-1.5c-0.3-0.1-0.7-0.2-1.1-0.2c-0.6,0-1.3,0.1-1.9,0.2c-0.4,0.1-0.8,0.2-1.2,0.3c-0.1,0-0.2,0.1-0.3,0.1
								c-0.1,0-0.2,0.1-0.3,0.1c-0.3,0.1-0.7,0.2-1.1,0.2c-0.6,0.1-1.2,0-1.9,0c-0.3,0-0.6,0-0.9,0c0,0,0,0,0,0c0,0-0.1,0-0.1,0
								c-0.9,0.1-1.8,0.2-2.7,0.4c0,0,0,0,0,0c0,0,0,0,0,0c-0.9,0.3-1.7,1-2.4,1.6l0,0c0-0.2,0.1-0.3,0.1-0.5
								c0.1-0.7,0.2-1.3,0.7-1.9c0.1-0.1,0.2-0.3,0.3-0.3c0,0,0,0,0,0c0.1-0.1,0.2-0.2,0.3-0.3c0.1-0.1,0.2-0.3,0.3-0.5
								c0-0.1,0.1-0.2,0.1-0.3c0,0,0,0,0,0c0.1-0.2,0.2-0.4,0.2-0.5c0.1-0.1,0.1-0.1,0.2-0.2c0.1-0.1,0.2-0.1,0.2-0.1
								c0,0,0.1,0,0.1,0c0,0,0,0,0-0.1c0,0,0,0,0,0c0.1,0,0.1,0,0.2,0c0.1,0,0.3,0,0.4-0.1c0.3-0.1,0.6-0.1,0.9-0.2
								c0.2-0.1,0.4-0.1,0.5-0.2c0.3-0.1,0.6-0.2,1-0.3c0.6-0.2,1-0.3,1.4-0.4c0.4-0.1,0.9-0.1,1.3-0.2c0,0,0.1,0,0.1,0
								c0.1,0,0.3,0,0.4,0c0.7,0,1.4,0,2.1,0.1c0,0,0,0,0,0c0.2,0,0.4,0,0.5,0c0.5,0,1,0.1,1.4,0.1c0.1,0,0.2,0,0.3,0c0,0,0,0,0,0
								c0.5,0.1,0.9,0.2,1.4,0.3c0.2,0,0.3,0.1,0.5,0.1c0,0,0.1,0,0.1,0c0.4,0.1,0.8,0.2,1.2,0.3c0.3,0.1,0.6,0.1,0.8,0.2
								c0.7,0.2,1.3,0.4,2,0.7c0.1,0.1,0.2,0.1,0.3,0.2c0.3,0.1,0.6,0.3,0.9,0.4c0.7,0.4,1.4,0.8,2.1,1.2c0,0,0,0,0.1,0.1
								c1,0.7,1.8,1.6,2.6,2.6c0,0,0,0,0,0c0.4,0.5,0.6,1,0.9,1.4c0.3,0.4,0.5,0.8,0.7,1.2c0.6,1.1,0.9,2.3,1.2,3.6c0,0,0,0.1,0,0.1
								c0,0.1,0.1,0.3,0.1,0.3c0.1,0.4,0.2,1,0.3,1.6c0.1,0.7,0.2,1.4,0.2,2c0,0.3,0,0.5,0,0.8c0,0.4,0,0.9,0,1.4
								c0,0.7-0.1,1.4-0.1,2.1c-0.1,0.9-0.2,1.9-0.4,2.8C42,41,41.9,41.3,41.8,41.3C41.9,41.3,41.9,41.3,41.8,41.3
								C41.8,41.3,41.8,41.3,41.8,41.3z"/>
						</g>
					</mask>
					<g class="st59">
						<g>
							<image style="overflow:visible;" width="30" height="26" xlink:href="63143F8D.png"  transform="matrix(1 0 0 1 13 16)">
							</image>
						</g>
					</g>
				</g>
			</g>
		</g>
		<image style="overflow:visible;" width="10" height="7" xlink:href="63143F82.png"  transform="matrix(1 0 0 1 37 36)">
		</image>
		<image style="overflow:visible;" width="9" height="7" xlink:href="63143F86.png"  transform="matrix(1 0 0 1 35 37)">
		</image>
		<image style="overflow:visible;" width="10" height="8" xlink:href="63143F87.png"  transform="matrix(1 0 0 1 38 37)">
		</image>
		<image style="overflow:visible;" width="10" height="5" xlink:href="51ED2E63.png"  transform="matrix(1 0 0 1 37 40)">
		</image>
		<image style="overflow:visible;" width="2" height="2" xlink:href="51ED2E61.png"  transform="matrix(1 0 0 1 33 34)">
		</image>
		<image style="overflow:visible;" width="2" height="1" xlink:href="51ED2E67.png"  transform="matrix(1 0 0 1 47 37)">
		</image>
		<image style="overflow:visible;" width="2" height="2" xlink:href="51ED2E62.png"  transform="matrix(1 0 0 1 35 33)">
		</image>
		<image style="overflow:visible;" width="2" height="3" xlink:href="51ED2E7D.png"  transform="matrix(1 0 0 1 46 32)">
		</image>
		<image style="overflow:visible;" width="3" height="2" xlink:href="51ED2E7E.png"  transform="matrix(1 0 0 1 47 34)">
		</image>
		<image style="overflow:visible;" width="2" height="1" xlink:href="51ED2E7F.png"  transform="matrix(1 0 0 1 33 37)">
		</image>
		<image style="overflow:visible;" width="3" height="2" xlink:href="51ED2E64.png"  transform="matrix(1 0 0 1 45 39)">
		</image>
		<image style="overflow:visible;" width="3" height="2" xlink:href="51ED2E65.png"  transform="matrix(1 0 0 1 47 35)">
		</image>
	</g>
</g>
</svg>
