<?xml version="1.0" encoding="utf-8"?>
<!-- Generator: Adobe Illustrator 22.0.1, SVG Export Plug-In . SVG Version: 6.00 Build 0)  -->
<svg version="1.1" id="Слой_1" xmlns="http://www.w3.org/2000/svg" xmlns:xlink="http://www.w3.org/1999/xlink" x="0px" y="0px"
	 viewBox="0 0 64 64" style="enable-background:new 0 0 64 64;" xml:space="preserve">
<style type="text/css">
	.st0{fill:#1D1D1B;}
</style>
<g>
	<path class="st0" d="M56.2,3.6H38.3c0,0.3,0.1,0.6,0.1,0.9c0.2,0.6,0.2,1.1,0.3,1.7h17.5c0.7,0,1.3,0.6,1.3,1.3v30.8
		c0,0.7-0.6,1.3-1.3,1.3h-17c0,0.9,0,1.7,0,2.6h17c2.1,0,3.9-1.8,3.9-3.9V7.5C60.1,5.3,58.4,3.6,56.2,3.6z"/>
	<path class="st0" d="M40.3,39.6H25.5c-0.7,0-1.3-0.6-1.3-1.3V7.5c0-0.7,0.6-1.3,1.3-1.3h14.5V3.6H25.5c-2.1,0-3.9,1.8-3.9,3.9v30.8
		c0,2.2,1.7,3.9,3.9,3.9h14.8V39.6z"/>
</g>
<g>
	<path class="st0" d="M39.2,41.4v16.2c0,0.7-0.6,1.3-1.3,1.3h-17c0,0.9,0,1.7,0,2.6h17c2.1,0,3.9-1.8,3.9-3.9V41.7
		C40.9,41.8,40,41.7,39.2,41.4z"/>
	<path class="st0" d="M7.1,61.5H25c0-0.3-0.1-0.6-0.1-0.9c-0.2-0.6-0.2-1.1-0.3-1.7H7.1c-0.7,0-1.3-0.6-1.3-1.3V26.8
		c0-0.7,0.6-1.3,1.3-1.3h17c0-0.9,0-1.7,0-2.6h-17c-2.1,0-3.9,1.8-3.9,3.9v30.8C3.2,59.8,4.9,61.5,7.1,61.5z"/>
</g>
</svg>
