<?xml version="1.0" encoding="utf-8"?>
<!-- Generator: Adobe Illustrator 23.1.0, SVG Export Plug-In . SVG Version: 6.00 Build 0)  -->
<svg version="1.1" id="Слой_1" xmlns="http://www.w3.org/2000/svg" xmlns:xlink="http://www.w3.org/1999/xlink" x="0px" y="0px"
	 viewBox="0 0 200 200" style="enable-background:new 0 0 200 200;" xml:space="preserve">
<style type="text/css">
	.st0{fill:#59E200;}
	.st1{fill:#59E200;stroke:#59E200;stroke-miterlimit:10;}
</style>
<path class="st0" d="M199,1v198H1V1H199 M200,0H0v200h200V0L200,0z"/>
<g>
	<path class="st1" d="M20.6,72.8v2.1c-2.5,0-4.6,1-6.4,3c-1.8,2-2.6,4.5-2.6,7.5v19.5h9.1v2.1h-9.1v12.7H9.4V85.3
		c0-3.6,1.1-6.6,3.2-9C14.9,74,17.5,72.8,20.6,72.8z"/>
	<path class="st1" d="M55,86.3v33.3h-2.1v-8.3c-1.2,2.8-3,5-5.5,6.7c-2.4,1.6-5,2.4-7.8,2.4c-4.2,0-7.9-1.7-10.9-5.1
		c-3-3.4-4.5-7.5-4.5-12.3c0-4.8,1.5-8.9,4.5-12.3c3-3.4,6.7-5.1,10.9-5.1c2.8,0,5.4,0.8,8,2.5c2.5,1.7,4.3,3.9,5.3,6.7v-8.4H55z
		 M26.3,103c0,4.1,1.3,7.7,4,10.8c2.7,3,5.8,4.6,9.5,4.6c3.7,0,6.8-1.5,9.4-4.6c2.6-3,3.9-6.6,3.9-10.8c0-4.2-1.3-7.8-3.9-10.8
		c-2.6-3.1-5.7-4.6-9.4-4.6c-3.6,0-6.8,1.5-9.5,4.6C27.6,95.2,26.3,98.9,26.3,103z"/>
	<path class="st1" d="M62.8,64.2h2.1v33.6l11.6-11.5h2.7L65.7,99.6l16.8,20h-2.8L64.9,102v17.5h-2.1V64.2z"/>
	<path class="st1" d="M99.1,120.5h-0.6c-4.1,0-7.7-1.8-10.8-5.3c-3.1-3.5-4.6-7.6-4.6-12.3c0-4.7,1.5-8.7,4.5-12.2
		c3-3.4,6.8-5.1,11.2-5.1c4.5,0,8.3,2,11.5,6.1l-20.4,22.9c2.8,2.6,5.5,3.8,8.1,3.8c2.6,0,4.9-0.7,7-2c2.1-1.4,3.8-3.2,5.1-5.4v3.8
		C107.2,118.5,103.5,120.5,99.1,120.5z M98.4,87.6c-3.4,0-6.5,1.5-9.2,4.6c-2.7,3-4,6.5-4,10.5c0,3.9,1.1,7.4,3.4,10.4l18.9-21.4
		C104.9,88.9,101.8,87.6,98.4,87.6z"/>
	<path class="st1" d="M134.4,119.6h-20v-2.3h20V119.6z"/>
	<path class="st1" d="M141.8,78.2c-1.3,0-1.9-0.7-1.9-2c0-1.3,0.6-2,1.9-2c1.3,0,1.9,0.7,1.9,2C143.6,77.5,143,78.2,141.8,78.2z
		 M142.8,86.4v33.2h-2.1V86.4H142.8z"/>
	<path class="st1" d="M175.4,87.6c1.8-1.4,4.1-2.1,6.7-2.1c2.6,0,5,1.1,7,3.3c2,2.2,3,5.1,3,8.8v22.1H190V97.5
		c0-2.9-0.8-5.2-2.5-7.1c-1.6-1.9-3.6-2.8-5.9-2.8s-4.4,1-6.2,3c-1.8,2-2.7,4.3-2.7,6.9v22.2h-2.1V97.4c0-2.7-0.8-5-2.5-6.9
		c-1.6-1.9-3.6-2.9-6-2.9s-4.4,1-6.1,3c-1.7,2-2.6,4.3-2.6,6.9v22.2h-2.1V86.3h2.1v4.7c0.9-1.5,2.2-2.8,3.9-3.8
		c1.7-1.1,3.5-1.6,5.3-1.6c1.8,0,3.6,0.7,5.3,2.2c1.7,1.5,2.9,3.3,3.7,5.7C172.4,90.9,173.6,89,175.4,87.6z"/>
</g>
</svg>
