<?xml version="1.0" encoding="utf-8"?>
<svg version="1.1" id="Слой_1" xmlns="http://www.w3.org/2000/svg" xmlns:xlink="http://www.w3.org/1999/xlink" x="0px" y="0px"
	 viewBox="0 0 200 200" style="enable-background:new 0 0 200 200;" xml:space="preserve">
<style type="text/css">
	.st0{fill:#4F7B30;}
	.st1{enable-background:new    ;}
</style>
<path class="st0" d="M199,1v198H1V1H199 M200,0H0v200h200V0L200,0z"/>
<g class="st1">
	<path class="st0" d="M40.9,128.6c0.9-3.2,1.3-7.5,1.3-12.7c0-12.9-1-25.3-3-37.3c-2-12-4.6-21-7.8-27c3.2-0.8,5.6-1.2,7.1-1.2
		c2.1,0,3.6,1,4.6,2.9c1,2,2.2,6.6,3.7,13.9c2.3,11.3,4,26.7,5.1,46.3c10.6-21.9,19.3-39,26-51.4c0.4-0.1,0.7-0.1,0.9-0.1
		c1.3-0.3,2.2-0.4,2.7-0.4c2.6,0,4,1.3,4,3.8c0,0.7-0.1,1.6-0.2,2.7c-1.3,10.3-1.9,18-1.9,22.9l-0.1,5.4l0,3.2
		c0,11.9,1.8,17.9,5.4,17.9c4.1,0,8.4-4.3,12.7-13c4.8-9.7,7.2-20.9,7.2-33.8c0-5.6-1.4-10.7-4.1-15.5c2.3-0.6,4.4-0.9,6.2-0.9
		c2.9,0,5,0.8,6.2,2.5c1.2,1.6,1.8,4.5,1.8,8.5c0,13.1-3.8,26.4-11.3,39.9c-3.5,6.2-7.4,11.4-11.7,15.4c-4.3,4-8.1,6.1-11.4,6.1
		c-3.6,0-6.2-2-7.7-6.1c-1.5-4-2.2-11-2.2-20.9c0-4,0.2-10.1,0.6-18.3c-7.7,13.3-13.5,24.3-17.5,32.9l-1.6,3.5
		c-2.3,4.6-4.1,7.5-5.4,8.4S45.9,127.9,40.9,128.6z"/>
	<path class="st0" d="M133.7,88.6h-1c-4.7,0-8.9,1.2-12.4,3.5c0.8-4.1,1.9-6.7,3.4-7.7c1.5-1.1,4.6-1.6,9.3-1.6h1.8l1.6-7.9
		c2.1-10.7,5.5-18.4,10.2-23.1c5.8-5.8,12.2-8.8,19.2-8.8c2.7,0,5.1,0.6,7.1,1.9c2,1.3,3,2.8,3,4.6c0,1.8-2.1,4-6.2,6.3
		c-1.1-4.9-3.8-7.3-7.8-7.3c-7.2,0-12.4,7.9-15.5,23.6l-2.1,10.6H161c7.6,0,13.2-0.4,16.7-1.2c-1.5,3.4-3.3,5.4-5.2,6.1
		c-2,0.7-7,1-15.1,1h-14.3l-8.1,40.9c-0.8,3.9-1.2,7.4-1.2,10.3c0,1.9,0.4,3.6,1.2,5.1c-3.2,1-5.6,1.6-7.3,1.6c-2.6,0-4-1.5-4-4.4
		c0-2.3,0.5-6.1,1.6-11.4L133.7,88.6z"/>
</g>
</svg>
