<?xml version="1.0" encoding="utf-8"?>
<!-- Generator: Adobe Illustrator 23.1.0, SVG Export Plug-In . SVG Version: 6.00 Build 0)  -->
<svg version="1.1" id="Слой_1" xmlns="http://www.w3.org/2000/svg" xmlns:xlink="http://www.w3.org/1999/xlink" x="0px" y="0px"
	 viewBox="0 0 200 200" style="enable-background:new 0 0 200 200;" xml:space="preserve">
<style type="text/css">
	.st0{fill:#750606;}
	.st1{fill:#750606;stroke:#750606;stroke-width:2;stroke-miterlimit:10;}
</style>
<path class="st0" d="M199,1v198H1V1H199 M200,0H0v200h200V0L200,0z"/>
<g>
	<path class="st1" d="M11.9,122.8c-3.4-3.5-5.1-7.6-5.1-12.3c0-4.7,1.7-8.7,5.2-12.2c3.5-3.4,7.6-5.1,12.5-5.1s9,1.7,12.4,5.1
		s5.1,7.5,5.1,12.2s-1.7,8.8-5,12.3s-7.4,5.3-12.2,5.3h-0.7C19.4,128.1,15.3,126.3,11.9,122.8z M39.7,110.6c0-4.2-1.5-7.8-4.5-10.8
		c-3-3.1-6.5-4.6-10.7-4.6s-7.7,1.5-10.8,4.6c-3,3.1-4.6,6.7-4.6,10.8c0,4.1,1.5,7.7,4.6,10.8c3,3,6.6,4.6,10.8,4.6
		s7.7-1.5,10.7-4.6C38.2,118.4,39.7,114.8,39.7,110.6z"/>
	<path class="st1" d="M61.7,125.8v2.1c-3.5,0-6.5-1.2-9-3.5s-3.7-5.3-3.7-9V71.8h2.4v43.7c0,3,1,5.5,3,7.5
		C56.5,124.9,58.9,125.8,61.7,125.8z"/>
	<path class="st1" d="M97.9,71.8v55.5h-2.4v-8.1c-1.5,2.7-3.6,4.9-6.4,6.5s-5.7,2.4-8.7,2.4c-4.9,0-9-1.7-12.5-5.1
		c-3.4-3.4-5.1-7.5-5.1-12.3s1.7-8.9,5.1-12.3s7.6-5.1,12.5-5.1c3.1,0,6,0.8,8.8,2.4s4.9,3.8,6.3,6.5V71.8H97.9z M65.2,110.6
		c0,4.2,1.5,7.8,4.4,10.8s6.5,4.6,10.7,4.6s7.8-1.5,10.8-4.6c3-3,4.6-6.6,4.6-10.8c0-4.1-1.5-7.8-4.6-10.8c-3-3.1-6.6-4.6-10.8-4.6
		c-4.1,0-7.7,1.5-10.7,4.6C66.7,102.9,65.2,106.5,65.2,110.6z"/>
	<path class="st1" d="M127,127.3h-22.8V125H127V127.3z"/>
	<path class="st1" d="M135.4,85.9c-1.4,0-2.1-0.7-2.1-2s0.7-2,2.1-2c1.4,0,2.1,0.7,2.1,2C137.6,85.2,136.9,85.9,135.4,85.9z
		 M136.6,94v33.2h-2.4V94H136.6z"/>
	<path class="st1" d="M173.8,95.3c2.1-1.4,4.6-2.1,7.7-2.1c3,0,5.6,1.1,7.9,3.3c2.3,2.2,3.4,5.1,3.4,8.8v22.1h-2.4v-22.1
		c0-2.9-0.9-5.2-2.8-7.1c-1.9-1.9-4.1-2.8-6.8-2.8c-2.6,0-5,1-7,3s-3.1,4.3-3.1,6.9v22.2h-2.4v-22.2c0-2.7-0.9-5-2.8-6.9
		c-1.9-1.9-4.1-2.9-6.8-2.9s-5,1-7,3s-3,4.3-3,6.9v22.2h-2.4V94h2.4v4.7c1-1.5,2.5-2.8,4.4-3.8c1.9-1.1,4-1.6,6.1-1.6s4.1,0.7,6,2.2
		s3.3,3.3,4.2,5.7C170.3,98.6,171.7,96.7,173.8,95.3z"/>
</g>
</svg>
